<svg xmlns="http://www.w3.org/2000/svg" viewBox="0.49999940395355225 0.4686291813850403 47 47.031375885009766"><g><g fill="#010101"><path d="M46 28.3H16V26c0-.6-.3-1.1-.8-1.4s-1.1-.2-1.6.2l-12.5 10c-.4.3-.6.7-.6 1.2s.2.9.6 1.2l12.5 10c.3.2.6.3.9.3.2 0 .4 0 .7-.1.5-.3.8-.8.8-1.4v-2.3h30c.8 0 1.5-.7 1.5-1.5V29.8c0-.8-.7-1.5-1.5-1.5zm-1.5 12.4h-30c-.8 0-1.5.7-1.5 1.5v.7L4.4 36l8.6-6.9v.7c0 .8.7 1.5 1.5 1.5h30zM34.4.8c-.5-.4-1.1-.4-1.6-.2-.5.3-.8.8-.8 1.4v2.3H2C1.2 4.3.5 5 .5 5.8v12.4c0 .8.7 1.5 1.5 1.5h30V22c0 .6.3 1.1.8 1.4.2.1.4.1.7.1s.7-.1.9-.3l12.5-10c.4-.3.6-.7.6-1.2s-.2-.9-.6-1.2zm.6 18.1v-.7c0-.8-.7-1.5-1.5-1.5h-30V7.3h30c.8 0 1.5-.7 1.5-1.5v-.7l8.6 6.9z" fill="#010101" opacity="1" data-original="#010101"></path></g></g></svg>