<svg width="512" height="336" viewBox="0 0 512 336" fill="none" xmlns="http://www.w3.org/2000/svg">
<path d="M503.171 335.448H8.82798C6.48674 335.448 4.24146 334.518 2.58595 332.862C0.930439 331.207 0.000265162 328.962 0 326.62L0 8.82798C0.000265162 6.48673 0.930439 4.24146 2.58595 2.58595C4.24146 0.930437 6.48674 0.000265162 8.82798 0H503.172C505.513 0.000265162 507.759 0.930437 509.414 2.58595C511.07 4.24146 512 6.48673 512 8.82798V326.62C511.999 328.962 511.069 331.207 509.413 332.862C507.758 334.518 505.512 335.448 503.171 335.448Z" fill="#41479B"/>
<path d="M257.018 38.0305L260.558 48.6435L271.745 48.7305C273.194 48.7415 273.794 50.5895 272.629 51.4505L263.629 58.0965L267.003 68.7625C267.44 70.1425 265.868 71.2865 264.689 70.4435L255.588 63.9375L246.487 70.4435C245.309 71.2855 243.736 70.1435 244.173 68.7625L247.547 58.0965L238.547 51.4505C237.382 50.5895 237.982 48.7415 239.431 48.7305L250.618 48.6435L254.158 38.0305C254.615 36.6565 256.56 36.6565 257.018 38.0305ZM257.018 265.893L260.558 276.506L271.745 276.592C273.194 276.603 273.794 278.451 272.629 279.312L263.629 285.959L267.003 296.625C267.44 298.005 265.868 299.149 264.689 298.306L255.588 291.799L246.487 298.306C245.309 299.148 243.736 298.006 244.173 296.625L247.547 285.959L238.547 279.312C237.382 278.451 237.982 276.603 239.431 276.592L250.618 276.506L254.158 265.893C254.615 264.519 256.56 264.519 257.018 265.893ZM370.949 151.962L374.489 162.575L385.676 162.662C387.125 162.673 387.725 164.521 386.56 165.382L377.56 172.028L380.934 182.693C381.371 184.073 379.799 185.217 378.62 184.374L369.519 177.868L360.418 184.374C359.24 185.216 357.667 184.074 358.104 182.693L361.478 172.028L352.478 165.382C351.313 164.521 351.913 162.673 353.362 162.662L364.549 162.575L368.089 151.962C368.546 150.588 370.491 150.588 370.949 151.962ZM143.086 151.962L146.626 162.575L157.813 162.662C159.262 162.673 159.862 164.521 158.697 165.382L149.697 172.028L153.071 182.693C153.508 184.073 151.936 185.217 150.757 184.374L141.656 177.868L132.555 184.374C131.377 185.216 129.804 184.074 130.241 182.693L133.615 172.028L124.615 165.382C123.45 164.521 124.05 162.673 125.499 162.662L136.686 162.575L140.226 151.962C140.684 150.588 142.629 150.588 143.086 151.962ZM160.19 92.4655L163.73 103.078L174.917 103.166C176.366 103.177 176.966 105.025 175.801 105.886L166.801 112.532L170.175 123.198C170.612 124.578 169.04 125.722 167.861 124.879L158.76 118.373L149.659 124.879C148.481 125.721 146.908 124.579 147.345 123.198L150.719 112.532L141.719 105.886C140.554 105.025 141.154 103.177 142.603 103.166L153.79 103.078L157.33 92.4655C157.788 91.0915 159.731 91.0915 160.19 92.4655ZM357.524 206.396L361.064 217.01L372.251 217.097C373.7 217.108 374.3 218.955 373.135 219.816L364.135 226.463L367.509 237.128C367.946 238.508 366.374 239.652 365.195 238.809L356.094 232.304L346.993 238.809C345.815 239.651 344.242 238.509 344.679 237.128L348.053 226.463L339.053 219.816C337.888 218.955 338.488 217.108 339.937 217.097L351.124 217.01L354.664 206.396C355.122 205.022 357.066 205.022 357.524 206.396ZM315.823 50.7635L319.363 61.3765L330.55 61.4635C331.999 61.4745 332.599 63.3225 331.434 64.1835L322.434 70.8295L325.808 81.4955C326.245 82.8755 324.673 84.0195 323.494 83.1765L314.393 76.6705L305.292 83.1765C304.114 84.0185 302.541 82.8765 302.978 81.4955L306.352 70.8295L297.352 64.1835C296.187 63.3225 296.787 61.4745 298.236 61.4635L309.423 61.3765L312.963 50.7635C313.42 49.3895 315.363 49.3895 315.823 50.7635ZM201.891 248.098L205.431 258.712L216.618 258.799C218.067 258.81 218.667 260.658 217.502 261.519L208.502 268.165L211.876 278.83C212.313 280.21 210.741 281.354 209.562 280.511L200.461 274.006L191.36 280.511C190.182 281.353 188.609 280.211 189.046 278.83L192.42 268.165L183.42 261.519C182.255 260.658 182.855 258.81 184.304 258.799L195.491 258.712L199.031 248.098C199.489 246.724 201.432 246.724 201.891 248.098ZM354.664 92.4655L351.124 103.078L339.937 103.166C338.488 103.177 337.888 105.025 339.053 105.886L348.053 112.532L344.679 123.198C344.242 124.578 345.814 125.722 346.993 124.879L356.094 118.373L365.195 124.879C366.373 125.721 367.946 124.579 367.509 123.198L364.135 112.532L373.135 105.886C374.3 105.025 373.7 103.177 372.251 103.166L361.064 103.078L357.524 92.4655C357.066 91.0915 355.122 91.0915 354.664 92.4655ZM157.33 206.396L153.79 217.01L142.603 217.097C141.154 217.108 140.554 218.955 141.719 219.816L150.719 226.463L147.345 237.128C146.908 238.508 148.48 239.652 149.659 238.809L158.76 232.304L167.861 238.809C169.039 239.651 170.612 238.509 170.175 237.128L166.801 226.463L175.801 219.816C176.966 218.955 176.366 217.108 174.917 217.097L163.73 217.01L160.19 206.396C159.731 205.022 157.788 205.022 157.33 206.396ZM199.031 50.7635L195.491 61.3765L184.304 61.4635C182.855 61.4745 182.255 63.3225 183.42 64.1835L192.42 70.8295L189.046 81.4955C188.609 82.8755 190.181 84.0195 191.36 83.1765L200.461 76.6705L209.562 83.1765C210.74 84.0185 212.313 82.8765 211.876 81.4955L208.502 70.8295L217.502 64.1835C218.667 63.3225 218.067 61.4745 216.618 61.4635L205.431 61.3765L201.891 50.7635C201.432 49.3895 199.489 49.3895 199.031 50.7635ZM312.962 248.098L309.422 258.712L298.235 258.799C296.786 258.81 296.186 260.658 297.351 261.519L306.351 268.165L302.977 278.83C302.54 280.21 304.112 281.354 305.291 280.511L314.392 274.006L323.493 280.511C324.671 281.353 326.244 280.211 325.807 278.83L322.433 268.165L331.433 261.519C332.598 260.658 331.998 258.81 330.549 258.799L319.362 258.712L315.822 248.098C315.363 246.724 313.42 246.724 312.962 248.098Z" fill="#FFE15A"/>
</svg>
